<?xml version="1.0" encoding="UTF-8"?>
<svg width="216px" height="80px" viewBox="0 0 216 80" version="1.1" xmlns="http://www.w3.org/2000/svg" xmlns:xlink="http://www.w3.org/1999/xlink">
    <title>POLERAMMA JATARA</title>
    <g id="Page-1" stroke="none" stroke-width="1" fill="none" fill-rule="evenodd">
        <g id="POLERAMMA-JATARA" transform="translate(0.500000, 0.060000)" fill="#222222" fill-rule="nonzero">
            <path d="M12.85,16.8 C12.85,17.48 12.92,18.025 13.06,18.435 C13.2,18.845 13.415,19.165 13.705,19.395 C13.995,19.625 14.355,19.79 14.785,19.89 C15.215,19.99 15.72,20.06 16.3,20.1 C16.44,20.1 16.54,20.155 16.6,20.265 C16.66,20.375 16.69,20.5 16.69,20.64 C16.69,20.76 16.655,20.87 16.585,20.97 C16.515,21.07 16.41,21.12 16.27,21.12 C15.19,21.12 14.265,21.08 13.495,21 C12.725,20.92 11.98,20.88 11.26,20.88 C10.5,20.88 9.75,20.92 9.01,21 C8.27,21.08 7.55,21.12 6.85,21.12 C6.73,21.12 6.64,21.07 6.58,20.97 C6.52,20.87 6.485,20.76 6.475,20.64 C6.465,20.52 6.49,20.405 6.55,20.295 C6.61,20.185 6.71,20.12 6.85,20.1 C7.41,20.04 7.87,19.96 8.23,19.86 C8.59,19.76 8.87,19.6 9.07,19.38 C9.27,19.16 9.405,18.87 9.475,18.51 C9.545,18.15 9.58,17.67 9.58,17.07 L9.58,5.88 C9.58,5.44 9.57,5 9.55,4.56 C9.53,4.12 9.465,3.715 9.355,3.345 C9.245,2.975 9.085,2.66 8.875,2.4 C8.665,2.14 8.38,1.97 8.02,1.89 C7.8,1.85 7.57,1.805 7.33,1.755 C7.09,1.705 6.86,1.67 6.64,1.65 C6.52,1.65 6.43,1.6 6.37,1.5 C6.31,1.4 6.28,1.29 6.28,1.17 C6.28,1.05 6.31,0.94 6.37,0.84 C6.43,0.74 6.52,0.69 6.64,0.69 C7.32,0.69 7.93,0.72 8.47,0.78 C9.01,0.84 9.64,0.87 10.36,0.87 C11.56,0.85 12.555,0.815 13.345,0.765 C14.135,0.715 14.89,0.69 15.61,0.69 C16.41,0.69 17.195,0.775 17.965,0.945 C18.735,1.115 19.415,1.405 20.005,1.815 C20.595,2.225 21.07,2.76 21.43,3.42 C21.79,4.08 21.97,4.89 21.97,5.85 C21.97,6.97 21.75,7.9 21.31,8.64 C20.87,9.38 20.265,9.98 19.495,10.44 C18.725,10.9 17.82,11.235 16.78,11.445 C15.74,11.655 14.62,11.78 13.42,11.82 C13.22,11.82 13.075,11.85 12.985,11.91 C12.895,11.97 12.85,12.14 12.85,12.42 L12.85,16.8 Z M12.85,10.29 C12.85,10.45 12.895,10.55 12.985,10.59 C13.075,10.63 13.24,10.65 13.48,10.65 C14.46,10.65 15.28,10.575 15.94,10.425 C16.6,10.275 17.13,10.025 17.53,9.675 C17.93,9.325 18.215,8.87 18.385,8.31 C18.555,7.75 18.64,7.05 18.64,6.21 C18.64,4.63 18.35,3.515 17.77,2.865 C17.19,2.215 16.19,1.89 14.77,1.89 C13.99,1.89 13.475,1.99 13.225,2.19 C12.975,2.39 12.85,2.8 12.85,3.42 L12.85,10.29 Z" id="Shape"></path>
            <path d="M33.73,21.24 C30.59,21.24 28.13,20.35 26.35,18.57 C24.57,16.79 23.68,14.13 23.68,10.59 C23.68,9.07 23.93,7.67 24.43,6.39 C24.93,5.11 25.625,4.01 26.515,3.09 C27.405,2.17 28.47,1.455 29.71,0.945 C30.95,0.435 32.32,0.18 33.82,0.18 C35.28,0.18 36.62,0.425 37.84,0.915 C39.06,1.405 40.11,2.1 40.99,3 C41.87,3.9 42.555,4.985 43.045,6.255 C43.535,7.525 43.78,8.94 43.78,10.5 C43.78,12.24 43.515,13.775 42.985,15.105 C42.455,16.435 41.735,17.555 40.825,18.465 C39.915,19.375 38.85,20.065 37.63,20.535 C36.41,21.005 35.11,21.24 33.73,21.24 Z M33.85,19.98 C34.83,19.98 35.695,19.72 36.445,19.2 C37.195,18.68 37.83,17.995 38.35,17.145 C38.87,16.295 39.265,15.315 39.535,14.205 C39.805,13.095 39.94,11.94 39.94,10.74 C39.94,9.58 39.835,8.44 39.625,7.32 C39.415,6.2 39.07,5.205 38.59,4.335 C38.11,3.465 37.47,2.765 36.67,2.235 C35.87,1.705 34.89,1.44 33.73,1.44 C32.65,1.44 31.715,1.71 30.925,2.25 C30.135,2.79 29.49,3.495 28.99,4.365 C28.49,5.235 28.12,6.225 27.88,7.335 C27.64,8.445 27.52,9.57 27.52,10.71 C27.52,11.91 27.62,13.07 27.82,14.19 C28.02,15.31 28.36,16.295 28.84,17.145 C29.32,17.995 29.965,18.68 30.775,19.2 C31.585,19.72 32.61,19.98 33.85,19.98 Z" id="Shape"></path>
            <path d="M49.03,5.28 C49.03,4.66 48.995,4.13 48.925,3.69 C48.855,3.25 48.72,2.89 48.52,2.61 C48.32,2.33 48.035,2.115 47.665,1.965 C47.295,1.815 46.8,1.72 46.18,1.68 C46.06,1.68 45.97,1.625 45.91,1.515 C45.85,1.405 45.82,1.29 45.82,1.17 C45.82,1.05 45.85,0.94 45.91,0.84 C45.97,0.74 46.06,0.69 46.18,0.69 C46.82,0.69 47.55,0.72 48.37,0.78 C49.19,0.84 49.96,0.87 50.68,0.87 C51.1,0.87 51.495,0.86 51.865,0.84 C52.235,0.82 52.595,0.8 52.945,0.78 C53.295,0.76 53.65,0.74 54.01,0.72 C54.37,0.7 54.76,0.69 55.18,0.69 C55.3,0.69 55.385,0.74 55.435,0.84 C55.485,0.94 55.505,1.05 55.495,1.17 C55.485,1.29 55.45,1.405 55.39,1.515 C55.33,1.625 55.25,1.68 55.15,1.68 C54.53,1.72 54.03,1.805 53.65,1.935 C53.27,2.065 52.98,2.265 52.78,2.535 C52.58,2.805 52.45,3.16 52.39,3.6 C52.33,4.04 52.3,4.6 52.3,5.28 L52.3,15.72 C52.3,16.36 52.33,16.895 52.39,17.325 C52.45,17.755 52.56,18.115 52.72,18.405 C52.88,18.695 53.1,18.92 53.38,19.08 C53.66,19.24 54.01,19.38 54.43,19.5 C54.71,19.56 55.025,19.605 55.375,19.635 C55.725,19.665 56.09,19.68 56.47,19.68 C56.95,19.68 57.4,19.66 57.82,19.62 C58.24,19.58 58.56,19.52 58.78,19.44 C59.18,19.3 59.525,19.15 59.815,18.99 C60.105,18.83 60.35,18.62 60.55,18.36 C60.75,18.1 60.915,17.775 61.045,17.385 C61.175,16.995 61.28,16.5 61.36,15.9 C61.38,15.78 61.45,15.7 61.57,15.66 C61.69,15.62 61.82,15.6 61.96,15.6 C62.1,15.6 62.225,15.63 62.335,15.69 C62.445,15.75 62.49,15.83 62.47,15.93 C62.37,16.77 62.28,17.555 62.2,18.285 C62.12,19.015 62.09,19.76 62.11,20.52 C62.11,20.58 62.07,20.665 61.99,20.775 C61.91,20.885 61.72,20.94 61.42,20.94 L50.53,20.94 C49.75,20.94 49,20.965 48.28,21.015 C47.56,21.065 46.85,21.11 46.15,21.15 C46.01,21.15 45.905,21.1 45.835,21 C45.765,20.9 45.73,20.79 45.73,20.67 C45.73,20.55 45.765,20.435 45.835,20.325 C45.905,20.215 46.01,20.15 46.15,20.13 C46.77,20.05 47.27,19.965 47.65,19.875 C48.03,19.785 48.32,19.645 48.52,19.455 C48.72,19.265 48.855,18.985 48.925,18.615 C48.995,18.245 49.03,17.73 49.03,17.07 L49.03,5.31 L49.03,5.28 Z" id="Path"></path>
            <path d="M78.88,0.78 C79.04,0.78 79.195,0.8 79.345,0.84 C79.495,0.88 79.55,1.04 79.51,1.32 C79.47,1.54 79.45,1.79 79.45,2.07 C79.45,2.35 79.45,2.63 79.45,2.91 C79.45,3.81 79.48,4.65 79.54,5.43 C79.54,5.51 79.495,5.575 79.405,5.625 C79.315,5.675 79.21,5.705 79.09,5.715 C78.97,5.725 78.855,5.71 78.745,5.67 C78.635,5.63 78.57,5.55 78.55,5.43 C78.41,4.65 78.27,4.04 78.13,3.6 C77.99,3.16 77.795,2.825 77.545,2.595 C77.295,2.365 76.955,2.22 76.525,2.16 C76.095,2.1 75.53,2.06 74.83,2.04 L73.03,2.04 C72.51,2.04 72.095,2.05 71.785,2.07 C71.475,2.09 71.23,2.165 71.05,2.295 C70.87,2.425 70.75,2.63 70.69,2.91 C70.63,3.19 70.6,3.58 70.6,4.08 L70.6,9.33 C70.6,9.61 70.65,9.785 70.75,9.855 C70.85,9.925 70.95,9.96 71.05,9.96 C71.97,9.96 72.695,9.92 73.225,9.84 C73.755,9.76 74.155,9.615 74.425,9.405 C74.695,9.195 74.875,8.92 74.965,8.58 C75.055,8.24 75.13,7.8 75.19,7.26 C75.21,7.14 75.27,7.05 75.37,6.99 C75.47,6.93 75.58,6.9 75.7,6.9 C75.82,6.9 75.93,6.93 76.03,6.99 C76.13,7.05 76.18,7.14 76.18,7.26 C76.18,7.58 76.17,7.865 76.15,8.115 C76.13,8.365 76.11,8.615 76.09,8.865 C76.07,9.115 76.05,9.375 76.03,9.645 C76.01,9.915 76,10.23 76,10.59 C76,11.19 76.03,11.735 76.09,12.225 C76.15,12.715 76.18,13.31 76.18,14.01 C76.18,14.11 76.13,14.185 76.03,14.235 C75.93,14.285 75.82,14.305 75.7,14.295 C75.58,14.285 75.47,14.255 75.37,14.205 C75.27,14.155 75.21,14.07 75.19,13.95 C75.13,13.37 75.055,12.9 74.965,12.54 C74.875,12.18 74.695,11.905 74.425,11.715 C74.155,11.525 73.755,11.395 73.225,11.325 C72.695,11.255 71.97,11.22 71.05,11.22 C70.95,11.22 70.85,11.255 70.75,11.325 C70.65,11.395 70.6,11.54 70.6,11.76 L70.6,15.69 C70.6,16.33 70.645,16.875 70.735,17.325 C70.825,17.775 70.96,18.145 71.14,18.435 C71.32,18.725 71.54,18.955 71.8,19.125 C72.06,19.295 72.37,19.42 72.73,19.5 C73.01,19.56 73.325,19.605 73.675,19.635 C74.025,19.665 74.39,19.68 74.77,19.68 C75.25,19.68 75.7,19.66 76.12,19.62 C76.54,19.58 76.86,19.52 77.08,19.44 C77.48,19.3 77.825,19.15 78.115,18.99 C78.405,18.83 78.65,18.62 78.85,18.36 C79.05,18.1 79.215,17.775 79.345,17.385 C79.475,16.995 79.58,16.5 79.66,15.9 C79.68,15.78 79.75,15.7 79.87,15.66 C79.99,15.62 80.12,15.6 80.26,15.6 C80.4,15.6 80.525,15.63 80.635,15.69 C80.745,15.75 80.79,15.83 80.77,15.93 C80.67,16.77 80.58,17.555 80.5,18.285 C80.42,19.015 80.39,19.76 80.41,20.52 C80.41,20.58 80.37,20.665 80.29,20.775 C80.21,20.885 80.02,20.94 79.72,20.94 L68.83,20.94 C68.07,20.94 67.325,20.96 66.595,21 C65.865,21.04 65.21,21.08 64.63,21.12 C64.47,21.12 64.35,21.075 64.27,20.985 C64.19,20.895 64.14,20.785 64.12,20.655 C64.1,20.525 64.13,20.405 64.21,20.295 C64.29,20.185 64.42,20.12 64.6,20.1 C65.08,20.04 65.49,19.955 65.83,19.845 C66.17,19.735 66.45,19.575 66.67,19.365 C66.89,19.155 67.055,18.89 67.165,18.57 C67.275,18.25 67.33,17.84 67.33,17.34 L67.33,5.79 C67.33,5.35 67.315,4.92 67.285,4.5 C67.255,4.08 67.19,3.69 67.09,3.33 C66.99,2.97 66.835,2.66 66.625,2.4 C66.415,2.14 66.13,1.96 65.77,1.86 C65.55,1.8 65.32,1.75 65.08,1.71 C64.84,1.67 64.61,1.64 64.39,1.62 C64.27,1.62 64.18,1.57 64.12,1.47 C64.06,1.37 64.03,1.26 64.03,1.14 C64.03,1.02 64.06,0.91 64.12,0.81 C64.18,0.71 64.27,0.66 64.39,0.66 C65.07,0.66 65.68,0.68 66.22,0.72 C66.76,0.76 67.39,0.78 68.11,0.78 L78.88,0.78 Z" id="Path"></path>
            <path d="M85.33,5.82 C85.33,5.38 85.315,4.95 85.285,4.53 C85.255,4.11 85.19,3.72 85.09,3.36 C84.99,3 84.835,2.69 84.625,2.43 C84.415,2.17 84.13,1.99 83.77,1.89 C83.55,1.83 83.32,1.78 83.08,1.74 C82.84,1.7 82.61,1.67 82.39,1.65 C82.27,1.65 82.18,1.6 82.12,1.5 C82.06,1.4 82.03,1.29 82.03,1.17 C82.03,1.05 82.06,0.94 82.12,0.84 C82.18,0.74 82.27,0.69 82.39,0.69 C83.07,0.69 83.68,0.71 84.22,0.75 C84.76,0.79 85.39,0.81 86.11,0.81 C87.31,0.79 88.305,0.765 89.095,0.735 C89.885,0.705 90.64,0.69 91.36,0.69 C92.16,0.69 92.95,0.785 93.73,0.975 C94.51,1.165 95.205,1.47 95.815,1.89 C96.425,2.31 96.915,2.86 97.285,3.54 C97.655,4.22 97.84,5.04 97.84,6 C97.84,6.76 97.725,7.42 97.495,7.98 C97.265,8.54 96.95,9.02 96.55,9.42 C96.15,9.82 95.675,10.145 95.125,10.395 C94.575,10.645 93.98,10.84 93.34,10.98 C93.2,11.02 93.13,11.09 93.13,11.19 C93.13,11.27 93.2,11.35 93.34,11.43 C94.28,11.89 95.005,12.4 95.515,12.96 C96.025,13.52 96.415,14.1 96.685,14.7 C96.955,15.3 97.15,15.915 97.27,16.545 C97.39,17.175 97.52,17.79 97.66,18.39 C97.76,18.85 97.925,19.185 98.155,19.395 C98.385,19.605 98.62,19.71 98.86,19.71 C99.1,19.71 99.33,19.61 99.55,19.41 C99.77,19.21 99.94,18.91 100.06,18.51 C100.1,18.35 100.18,18.245 100.3,18.195 C100.42,18.145 100.535,18.135 100.645,18.165 C100.755,18.195 100.855,18.255 100.945,18.345 C101.035,18.435 101.07,18.53 101.05,18.63 C100.99,19.13 100.85,19.56 100.63,19.92 C100.41,20.28 100.145,20.575 99.835,20.805 C99.525,21.035 99.175,21.205 98.785,21.315 C98.395,21.425 98.01,21.48 97.63,21.48 C96.99,21.48 96.41,21.34 95.89,21.06 C95.37,20.78 95.02,20.38 94.84,19.86 C94.72,19.52 94.605,19.15 94.495,18.75 C94.385,18.35 94.28,17.945 94.18,17.535 C94.08,17.125 93.98,16.725 93.88,16.335 C93.78,15.945 93.69,15.6 93.61,15.3 C93.25,14.02 92.785,13.1 92.215,12.54 C91.645,11.98 90.85,11.7 89.83,11.7 C89.49,11.7 89.2,11.77 88.96,11.91 C88.72,12.05 88.6,12.33 88.6,12.75 L88.6,16.8 C88.6,17.48 88.67,18.025 88.81,18.435 C88.95,18.845 89.16,19.165 89.44,19.395 C89.72,19.625 90.065,19.79 90.475,19.89 C90.885,19.99 91.36,20.06 91.9,20.1 C92.02,20.1 92.115,20.155 92.185,20.265 C92.255,20.375 92.29,20.5 92.29,20.64 C92.29,20.76 92.255,20.87 92.185,20.97 C92.115,21.07 92.01,21.12 91.87,21.12 C90.87,21.12 89.99,21.08 89.23,21 C88.47,20.92 87.73,20.88 87.01,20.88 C86.25,20.88 85.5,20.92 84.76,21 C84.02,21.08 83.3,21.12 82.6,21.12 C82.48,21.12 82.39,21.07 82.33,20.97 C82.27,20.87 82.235,20.76 82.225,20.64 C82.215,20.52 82.24,20.405 82.3,20.295 C82.36,20.185 82.46,20.12 82.6,20.1 C83.16,20.04 83.62,19.96 83.98,19.86 C84.34,19.76 84.62,19.6 84.82,19.38 C85.02,19.16 85.155,18.87 85.225,18.51 C85.295,18.15 85.33,17.67 85.33,17.07 L85.33,5.82 Z M88.6,9.39 C88.6,9.91 88.745,10.215 89.035,10.305 C89.325,10.395 89.76,10.44 90.34,10.44 C91.12,10.44 91.775,10.365 92.305,10.215 C92.835,10.065 93.26,9.815 93.58,9.465 C93.9,9.115 94.125,8.665 94.255,8.115 C94.385,7.565 94.45,6.89 94.45,6.09 C94.45,5.33 94.38,4.685 94.24,4.155 C94.1,3.625 93.875,3.195 93.565,2.865 C93.255,2.535 92.85,2.3 92.35,2.16 C91.85,2.02 91.24,1.95 90.52,1.95 C89.74,1.95 89.225,2.05 88.975,2.25 C88.725,2.45 88.6,2.86 88.6,3.48 L88.6,9.39 Z" id="Shape"></path>
            <path d="M108.49,13.86 C108.21,13.86 108.01,13.905 107.89,13.995 C107.77,14.085 107.66,14.24 107.56,14.46 L106.21,18 C106.11,18.3 106.06,18.53 106.06,18.69 C106.06,18.95 106.125,19.165 106.255,19.335 C106.385,19.505 106.56,19.64 106.78,19.74 C107,19.84 107.25,19.92 107.53,19.98 C107.81,20.04 108.1,20.08 108.4,20.1 C108.54,20.1 108.64,20.155 108.7,20.265 C108.76,20.375 108.79,20.49 108.79,20.61 C108.79,20.73 108.76,20.845 108.7,20.955 C108.64,21.065 108.54,21.12 108.4,21.12 C107.92,21.12 107.37,21.08 106.75,21 C106.13,20.92 105.54,20.88 104.98,20.88 C104.46,20.88 103.96,20.92 103.48,21 C103,21.08 102.48,21.12 101.92,21.12 C101.82,21.12 101.735,21.07 101.665,20.97 C101.595,20.87 101.555,20.76 101.545,20.64 C101.535,20.52 101.555,20.405 101.605,20.295 C101.655,20.185 101.75,20.12 101.89,20.1 L102.34,20.04 C102.64,19.98 102.915,19.905 103.165,19.815 C103.415,19.725 103.645,19.58 103.855,19.38 C104.065,19.18 104.27,18.915 104.47,18.585 C104.67,18.255 104.87,17.83 105.07,17.31 L111.85,0.24 C111.91,0.08 112.07,0 112.33,0 C112.61,0 112.83,0.08 112.99,0.24 C113.49,1.52 114.025,2.89 114.595,4.35 C115.165,5.81 115.75,7.295 116.35,8.805 C116.95,10.315 117.55,11.815 118.15,13.305 C118.75,14.795 119.32,16.2 119.86,17.52 C120.1,18.1 120.335,18.55 120.565,18.87 C120.795,19.19 121.025,19.43 121.255,19.59 C121.485,19.75 121.72,19.86 121.96,19.92 C122.2,19.98 122.46,20.04 122.74,20.1 C122.86,20.12 122.945,20.185 122.995,20.295 C123.045,20.405 123.07,20.52 123.07,20.64 C123.07,20.76 123.045,20.87 122.995,20.97 C122.945,21.07 122.87,21.12 122.77,21.12 C122.13,21.12 121.515,21.08 120.925,21 C120.335,20.92 119.67,20.88 118.93,20.88 C118.09,20.88 117.3,20.92 116.56,21 C115.82,21.08 115.11,21.12 114.43,21.12 C114.29,21.12 114.185,21.065 114.115,20.955 C114.045,20.845 114.01,20.72 114.01,20.58 C114.01,20.46 114.04,20.355 114.1,20.265 C114.16,20.175 114.26,20.12 114.4,20.1 C115.08,20.02 115.58,19.9 115.9,19.74 C116.22,19.58 116.38,19.25 116.38,18.75 C116.38,18.61 116.365,18.45 116.335,18.27 C116.305,18.09 116.24,17.845 116.14,17.535 C116.04,17.225 115.9,16.825 115.72,16.335 C115.54,15.845 115.3,15.22 115,14.46 C114.9,14.2 114.765,14.035 114.595,13.965 C114.425,13.895 114.15,13.86 113.77,13.86 L108.49,13.86 Z M113.65,12.69 C113.93,12.69 114.12,12.645 114.22,12.555 C114.32,12.465 114.32,12.3 114.22,12.06 L111.61,5.04 C111.57,4.94 111.49,4.89 111.37,4.89 C111.25,4.89 111.17,4.94 111.13,5.04 L108.4,12.06 C108.3,12.32 108.29,12.49 108.37,12.57 C108.45,12.65 108.6,12.69 108.82,12.69 L113.65,12.69 Z" id="Shape"></path>
            <path d="M127.24,4.44 C127.24,3.84 127.195,3.37 127.105,3.03 C127.015,2.69 126.865,2.425 126.655,2.235 C126.445,2.045 126.17,1.915 125.83,1.845 C125.49,1.775 125.06,1.72 124.54,1.68 C124.42,1.68 124.325,1.625 124.255,1.515 C124.185,1.405 124.15,1.29 124.15,1.17 C124.15,1.05 124.185,0.94 124.255,0.84 C124.325,0.74 124.42,0.69 124.54,0.69 C124.72,0.69 124.99,0.69 125.35,0.69 C125.73,0.69 126.15,0.695 126.61,0.705 C127.07,0.715 127.545,0.725 128.035,0.735 C128.525,0.745 128.97,0.765 129.37,0.795 C129.77,0.825 130.105,0.865 130.375,0.915 C130.645,0.965 130.8,1.03 130.84,1.11 L136.93,15.42 C136.97,15.48 137.01,15.51 137.05,15.51 C137.11,15.51 137.16,15.48 137.2,15.42 L143.2,1.11 C143.22,1.03 143.475,0.965 143.965,0.915 C144.455,0.865 145.025,0.825 145.675,0.795 C146.325,0.765 146.985,0.74 147.655,0.72 C148.325,0.7 148.86,0.69 149.26,0.69 C149.38,0.69 149.465,0.74 149.515,0.84 C149.565,0.94 149.59,1.05 149.59,1.17 C149.59,1.29 149.56,1.4 149.5,1.5 C149.44,1.6 149.36,1.66 149.26,1.68 C148.58,1.8 148.05,1.91 147.67,2.01 C147.29,2.11 147.01,2.295 146.83,2.565 C146.65,2.835 146.54,3.23 146.5,3.75 C146.46,4.27 146.44,5.01 146.44,5.97 L146.44,17.04 C146.44,17.7 146.48,18.215 146.56,18.585 C146.64,18.955 146.785,19.24 146.995,19.44 C147.205,19.64 147.5,19.785 147.88,19.875 C148.26,19.965 148.75,20.04 149.35,20.1 C149.47,20.12 149.565,20.185 149.635,20.295 C149.705,20.405 149.74,20.52 149.74,20.64 C149.74,20.76 149.705,20.87 149.635,20.97 C149.565,21.07 149.46,21.12 149.32,21.12 C148.52,21.12 147.755,21.08 147.025,21 C146.295,20.92 145.57,20.88 144.85,20.88 C144.09,20.88 143.305,20.92 142.495,21 C141.685,21.08 140.95,21.12 140.29,21.12 C140.17,21.12 140.08,21.07 140.02,20.97 C139.96,20.87 139.93,20.76 139.93,20.64 C139.93,20.52 139.96,20.405 140.02,20.295 C140.08,20.185 140.17,20.12 140.29,20.1 C140.91,20.04 141.405,19.965 141.775,19.875 C142.145,19.785 142.435,19.64 142.645,19.44 C142.855,19.24 142.995,18.955 143.065,18.585 C143.135,18.215 143.17,17.7 143.17,17.04 L143.17,5.91 C143.17,5.77 143.09,5.705 142.93,5.715 C142.77,5.725 142.67,5.79 142.63,5.91 L138.31,16.08 C138.01,16.78 137.715,17.545 137.425,18.375 C137.135,19.205 136.85,20.04 136.57,20.88 C136.55,20.94 136.495,20.985 136.405,21.015 C136.315,21.045 136.22,21.06 136.12,21.06 C136.02,21.06 135.925,21.045 135.835,21.015 C135.745,20.985 135.69,20.94 135.67,20.88 L129.07,5.76 C129.03,5.66 128.945,5.6 128.815,5.58 C128.685,5.56 128.62,5.63 128.62,5.79 L128.62,16.95 C128.62,17.67 128.68,18.23 128.8,18.63 C128.92,19.03 129.095,19.33 129.325,19.53 C129.555,19.73 129.84,19.865 130.18,19.935 C130.52,20.005 130.92,20.07 131.38,20.13 C131.48,20.15 131.555,20.21 131.605,20.31 C131.655,20.41 131.68,20.52 131.68,20.64 C131.68,20.76 131.655,20.87 131.605,20.97 C131.555,21.07 131.47,21.12 131.35,21.12 C130.91,21.12 130.425,21.08 129.895,21 C129.365,20.92 128.74,20.88 128.02,20.88 C127.26,20.88 126.585,20.92 125.995,21 C125.405,21.08 124.91,21.12 124.51,21.12 C124.41,21.12 124.33,21.07 124.27,20.97 C124.21,20.87 124.175,20.76 124.165,20.64 C124.155,20.52 124.18,20.41 124.24,20.31 C124.3,20.21 124.39,20.15 124.51,20.13 C125.03,20.07 125.465,20.005 125.815,19.935 C126.165,19.865 126.445,19.73 126.655,19.53 C126.865,19.33 127.015,19.03 127.105,18.63 C127.195,18.23 127.24,17.67 127.24,16.95 L127.24,4.44 Z" id="Path"></path>
            <path d="M154.33,4.44 C154.33,3.84 154.285,3.37 154.195,3.03 C154.105,2.69 153.955,2.425 153.745,2.235 C153.535,2.045 153.26,1.915 152.92,1.845 C152.58,1.775 152.15,1.72 151.63,1.68 C151.51,1.68 151.415,1.625 151.345,1.515 C151.275,1.405 151.24,1.29 151.24,1.17 C151.24,1.05 151.275,0.94 151.345,0.84 C151.415,0.74 151.51,0.69 151.63,0.69 C151.81,0.69 152.08,0.69 152.44,0.69 C152.82,0.69 153.24,0.695 153.7,0.705 C154.16,0.715 154.635,0.725 155.125,0.735 C155.615,0.745 156.06,0.765 156.46,0.795 C156.86,0.825 157.195,0.865 157.465,0.915 C157.735,0.965 157.89,1.03 157.93,1.11 L164.02,15.42 C164.06,15.48 164.1,15.51 164.14,15.51 C164.2,15.51 164.25,15.48 164.29,15.42 L170.29,1.11 C170.31,1.03 170.565,0.965 171.055,0.915 C171.545,0.865 172.115,0.825 172.765,0.795 C173.415,0.765 174.075,0.74 174.745,0.72 C175.415,0.7 175.95,0.69 176.35,0.69 C176.47,0.69 176.555,0.74 176.605,0.84 C176.655,0.94 176.68,1.05 176.68,1.17 C176.68,1.29 176.65,1.4 176.59,1.5 C176.53,1.6 176.45,1.66 176.35,1.68 C175.67,1.8 175.14,1.91 174.76,2.01 C174.38,2.11 174.1,2.295 173.92,2.565 C173.74,2.835 173.63,3.23 173.59,3.75 C173.55,4.27 173.53,5.01 173.53,5.97 L173.53,17.04 C173.53,17.7 173.57,18.215 173.65,18.585 C173.73,18.955 173.875,19.24 174.085,19.44 C174.295,19.64 174.59,19.785 174.97,19.875 C175.35,19.965 175.84,20.04 176.44,20.1 C176.56,20.12 176.655,20.185 176.725,20.295 C176.795,20.405 176.83,20.52 176.83,20.64 C176.83,20.76 176.795,20.87 176.725,20.97 C176.655,21.07 176.55,21.12 176.41,21.12 C175.61,21.12 174.845,21.08 174.115,21 C173.385,20.92 172.66,20.88 171.94,20.88 C171.18,20.88 170.395,20.92 169.585,21 C168.775,21.08 168.04,21.12 167.38,21.12 C167.26,21.12 167.17,21.07 167.11,20.97 C167.05,20.87 167.02,20.76 167.02,20.64 C167.02,20.52 167.05,20.405 167.11,20.295 C167.17,20.185 167.26,20.12 167.38,20.1 C168,20.04 168.495,19.965 168.865,19.875 C169.235,19.785 169.525,19.64 169.735,19.44 C169.945,19.24 170.085,18.955 170.155,18.585 C170.225,18.215 170.26,17.7 170.26,17.04 L170.26,5.91 C170.26,5.77 170.18,5.705 170.02,5.715 C169.86,5.725 169.76,5.79 169.72,5.91 L165.4,16.08 C165.1,16.78 164.805,17.545 164.515,18.375 C164.225,19.205 163.94,20.04 163.66,20.88 C163.64,20.94 163.585,20.985 163.495,21.015 C163.405,21.045 163.31,21.06 163.21,21.06 C163.11,21.06 163.015,21.045 162.925,21.015 C162.835,20.985 162.78,20.94 162.76,20.88 L156.16,5.76 C156.12,5.66 156.035,5.6 155.905,5.58 C155.775,5.56 155.71,5.63 155.71,5.79 L155.71,16.95 C155.71,17.67 155.77,18.23 155.89,18.63 C156.01,19.03 156.185,19.33 156.415,19.53 C156.645,19.73 156.93,19.865 157.27,19.935 C157.61,20.005 158.01,20.07 158.47,20.13 C158.57,20.15 158.645,20.21 158.695,20.31 C158.745,20.41 158.77,20.52 158.77,20.64 C158.77,20.76 158.745,20.87 158.695,20.97 C158.645,21.07 158.56,21.12 158.44,21.12 C158,21.12 157.515,21.08 156.985,21 C156.455,20.92 155.83,20.88 155.11,20.88 C154.35,20.88 153.675,20.92 153.085,21 C152.495,21.08 152,21.12 151.6,21.12 C151.5,21.12 151.42,21.07 151.36,20.97 C151.3,20.87 151.265,20.76 151.255,20.64 C151.245,20.52 151.27,20.41 151.33,20.31 C151.39,20.21 151.48,20.15 151.6,20.13 C152.12,20.07 152.555,20.005 152.905,19.935 C153.255,19.865 153.535,19.73 153.745,19.53 C153.955,19.33 154.105,19.03 154.195,18.63 C154.285,18.23 154.33,17.67 154.33,16.95 L154.33,4.44 Z" id="Path"></path>
            <path d="M184.69,13.86 C184.41,13.86 184.21,13.905 184.09,13.995 C183.97,14.085 183.86,14.24 183.76,14.46 L182.41,18 C182.31,18.3 182.26,18.53 182.26,18.69 C182.26,18.95 182.325,19.165 182.455,19.335 C182.585,19.505 182.76,19.64 182.98,19.74 C183.2,19.84 183.45,19.92 183.73,19.98 C184.01,20.04 184.3,20.08 184.6,20.1 C184.74,20.1 184.84,20.155 184.9,20.265 C184.96,20.375 184.99,20.49 184.99,20.61 C184.99,20.73 184.96,20.845 184.9,20.955 C184.84,21.065 184.74,21.12 184.6,21.12 C184.12,21.12 183.57,21.08 182.95,21 C182.33,20.92 181.74,20.88 181.18,20.88 C180.66,20.88 180.16,20.92 179.68,21 C179.2,21.08 178.68,21.12 178.12,21.12 C178.02,21.12 177.935,21.07 177.865,20.97 C177.795,20.87 177.755,20.76 177.745,20.64 C177.735,20.52 177.755,20.405 177.805,20.295 C177.855,20.185 177.95,20.12 178.09,20.1 L178.54,20.04 C178.84,19.98 179.115,19.905 179.365,19.815 C179.615,19.725 179.845,19.58 180.055,19.38 C180.265,19.18 180.47,18.915 180.67,18.585 C180.87,18.255 181.07,17.83 181.27,17.31 L188.05,0.24 C188.11,0.08 188.27,0 188.53,0 C188.81,0 189.03,0.08 189.19,0.24 C189.69,1.52 190.225,2.89 190.795,4.35 C191.365,5.81 191.95,7.295 192.55,8.805 C193.15,10.315 193.75,11.815 194.35,13.305 C194.95,14.795 195.52,16.2 196.06,17.52 C196.3,18.1 196.535,18.55 196.765,18.87 C196.995,19.19 197.225,19.43 197.455,19.59 C197.685,19.75 197.92,19.86 198.16,19.92 C198.4,19.98 198.66,20.04 198.94,20.1 C199.06,20.12 199.145,20.185 199.195,20.295 C199.245,20.405 199.27,20.52 199.27,20.64 C199.27,20.76 199.245,20.87 199.195,20.97 C199.145,21.07 199.07,21.12 198.97,21.12 C198.33,21.12 197.715,21.08 197.125,21 C196.535,20.92 195.87,20.88 195.13,20.88 C194.29,20.88 193.5,20.92 192.76,21 C192.02,21.08 191.31,21.12 190.63,21.12 C190.49,21.12 190.385,21.065 190.315,20.955 C190.245,20.845 190.21,20.72 190.21,20.58 C190.21,20.46 190.24,20.355 190.3,20.265 C190.36,20.175 190.46,20.12 190.6,20.1 C191.28,20.02 191.78,19.9 192.1,19.74 C192.42,19.58 192.58,19.25 192.58,18.75 C192.58,18.61 192.565,18.45 192.535,18.27 C192.505,18.09 192.44,17.845 192.34,17.535 C192.24,17.225 192.1,16.825 191.92,16.335 C191.74,15.845 191.5,15.22 191.2,14.46 C191.1,14.2 190.965,14.035 190.795,13.965 C190.625,13.895 190.35,13.86 189.97,13.86 L184.69,13.86 Z M189.85,12.69 C190.13,12.69 190.32,12.645 190.42,12.555 C190.52,12.465 190.52,12.3 190.42,12.06 L187.81,5.04 C187.77,4.94 187.69,4.89 187.57,4.89 C187.45,4.89 187.37,4.94 187.33,5.04 L184.6,12.06 C184.5,12.32 184.49,12.49 184.57,12.57 C184.65,12.65 184.8,12.69 185.02,12.69 L189.85,12.69 Z" id="Shape"></path>
            <path d="M19.085,66.345 C19.085,68.2883333 18.7825,70.0758333 18.1775,71.7075 C17.5725,73.3391667 16.7475,74.7416667 15.7025,75.915 C14.6575,77.0883333 13.4108333,78.005 11.9625,78.665 C10.5141667,79.325 8.965,79.655 7.315,79.655 C5.005,79.655 3.20833333,79.1966667 1.925,78.28 C0.641666667,77.3633333 0,76.135 0,74.595 C0,74.265 0.0641666667,73.9258333 0.1925,73.5775 C0.320833333,73.2291667 0.504166667,72.9083333 0.7425,72.615 C0.980833333,72.3216667 1.28333333,72.0833333 1.65,71.9 C2.01666667,71.7166667 2.43833333,71.625 2.915,71.625 C3.75833333,71.625 4.44583333,71.8816667 4.9775,72.395 C5.50916667,72.9083333 5.775,73.495 5.775,74.155 C5.775,74.485 5.64666667,74.8241667 5.39,75.1725 C5.13333333,75.5208333 5.005,75.86 5.005,76.19 C5.005,76.6666667 5.2525,77.0333333 5.7475,77.29 C6.2425,77.5466667 6.85666667,77.675 7.59,77.675 C8.65333333,77.675 9.5425,77.4641667 10.2575,77.0425 C10.9725,76.6208333 11.5408333,76.0433333 11.9625,75.31 C12.3841667,74.5766667 12.6775,73.6875 12.8425,72.6425 C13.0075,71.5975 13.09,70.4333333 13.09,69.15 L13.09,39.23 C13.09,38.0933333 13.0258333,37.1308333 12.8975,36.3425 C12.7691667,35.5541667 12.5216667,34.9033333 12.155,34.39 C11.7883333,33.8766667 11.2658333,33.4825 10.5875,33.2075 C9.90916667,32.9325 9.00166667,32.7583333 7.865,32.685 C7.645,32.685 7.48,32.5841667 7.37,32.3825 C7.26,32.1808333 7.205,31.97 7.205,31.75 C7.205,31.4933333 7.26,31.2733333 7.37,31.09 C7.48,30.9066667 7.645,30.815 7.865,30.815 C9.03833333,30.815 10.3766667,30.87 11.88,30.98 C13.3833333,31.09 14.795,31.145 16.115,31.145 C16.885,31.145 17.6091667,31.1266667 18.2875,31.09 C18.9658333,31.0533333 19.6258333,31.0166667 20.2675,30.98 C20.9091667,30.9433333 21.56,30.9066667 22.22,30.87 C22.88,30.8333333 23.595,30.815 24.365,30.815 C24.585,30.815 24.7408333,30.9066667 24.8325,31.09 C24.9241667,31.2733333 24.9608333,31.4841667 24.9425,31.7225 C24.9241667,31.9608333 24.86,32.1808333 24.75,32.3825 C24.64,32.5841667 24.4933333,32.685 24.31,32.685 C23.1733333,32.7583333 22.2566667,32.9141667 21.56,33.1525 C20.8633333,33.3908333 20.3316667,33.7483333 19.965,34.225 C19.5983333,34.7016667 19.36,35.3433333 19.25,36.15 C19.14,36.9566667 19.085,37.9833333 19.085,39.23 L19.085,66.345 Z" id="Path"></path>
            <path d="M39.38,54.96 C38.8666667,54.96 38.5,55.0425 38.28,55.2075 C38.06,55.3725 37.8583333,55.6566667 37.675,56.06 L35.2,62.55 C35.0166667,63.1 34.925,63.5216667 34.925,63.815 C34.925,64.2916667 35.0441667,64.6858333 35.2825,64.9975 C35.5208333,65.3091667 35.8416667,65.5566667 36.245,65.74 C36.6483333,65.9233333 37.1066667,66.07 37.62,66.18 C38.1333333,66.29 38.665,66.3633333 39.215,66.4 C39.4716667,66.4 39.655,66.5008333 39.765,66.7025 C39.875,66.9041667 39.93,67.115 39.93,67.335 C39.93,67.555 39.875,67.7658333 39.765,67.9675 C39.655,68.1691667 39.4716667,68.27 39.215,68.27 C38.335,68.27 37.3266667,68.1966667 36.19,68.05 C35.0533333,67.9033333 33.9716667,67.83 32.945,67.83 C31.9916667,67.83 31.075,67.9033333 30.195,68.05 C29.315,68.1966667 28.3616667,68.27 27.335,68.27 C27.1516667,68.27 26.9958333,68.1783333 26.8675,67.995 C26.7391667,67.8116667 26.6658333,67.61 26.6475,67.39 C26.6291667,67.17 26.6658333,66.9591667 26.7575,66.7575 C26.8491667,66.5558333 27.0233333,66.4366667 27.28,66.4 L28.105,66.29 C28.655,66.18 29.1591667,66.0425 29.6175,65.8775 C30.0758333,65.7125 30.4975,65.4466667 30.8825,65.08 C31.2675,64.7133333 31.6433333,64.2275 32.01,63.6225 C32.3766667,63.0175 32.7433333,62.2383333 33.11,61.285 L45.54,29.99 C45.65,29.6966667 45.9433333,29.55 46.42,29.55 C46.9333333,29.55 47.3366667,29.6966667 47.63,29.99 C48.5466667,32.3366667 49.5275,34.8483333 50.5725,37.525 C51.6175,40.2016667 52.69,42.9241667 53.79,45.6925 C54.89,48.4608333 55.99,51.2108333 57.09,53.9425 C58.19,56.6741667 59.235,59.25 60.225,61.67 C60.665,62.7333333 61.0958333,63.5583333 61.5175,64.145 C61.9391667,64.7316667 62.3608333,65.1716667 62.7825,65.465 C63.2041667,65.7583333 63.635,65.96 64.075,66.07 C64.515,66.18 64.9916667,66.29 65.505,66.4 C65.725,66.4366667 65.8808333,66.5558333 65.9725,66.7575 C66.0641667,66.9591667 66.11,67.17 66.11,67.39 C66.11,67.61 66.0641667,67.8116667 65.9725,67.995 C65.8808333,68.1783333 65.7433333,68.27 65.56,68.27 C64.3866667,68.27 63.2591667,68.1966667 62.1775,68.05 C61.0958333,67.9033333 59.8766667,67.83 58.52,67.83 C56.98,67.83 55.5316667,67.9033333 54.175,68.05 C52.8183333,68.1966667 51.5166667,68.27 50.27,68.27 C50.0133333,68.27 49.8208333,68.1691667 49.6925,67.9675 C49.5641667,67.7658333 49.5,67.5366667 49.5,67.28 C49.5,67.06 49.555,66.8675 49.665,66.7025 C49.775,66.5375 49.9583333,66.4366667 50.215,66.4 C51.4616667,66.2533333 52.3783333,66.0333333 52.965,65.74 C53.5516667,65.4466667 53.845,64.8416667 53.845,63.925 C53.845,63.6683333 53.8175,63.375 53.7625,63.045 C53.7075,62.715 53.5883333,62.2658333 53.405,61.6975 C53.2216667,61.1291667 52.965,60.3958333 52.635,59.4975 C52.305,58.5991667 51.865,57.4533333 51.315,56.06 C51.1316667,55.5833333 50.8841667,55.2808333 50.5725,55.1525 C50.2608333,55.0241667 49.7566667,54.96 49.06,54.96 L39.38,54.96 Z M48.84,52.815 C49.3533333,52.815 49.7016667,52.7325 49.885,52.5675 C50.0683333,52.4025 50.0683333,52.1 49.885,51.66 L45.1,38.79 C45.0266667,38.6066667 44.88,38.515 44.66,38.515 C44.44,38.515 44.2933333,38.6066667 44.22,38.79 L39.215,51.66 C39.0316667,52.1366667 39.0133333,52.4483333 39.16,52.595 C39.3066667,52.7416667 39.5816667,52.815 39.985,52.815 L48.84,52.815 Z" id="Shape"></path>
            <path d="M82.995,60.79 C82.995,62 83.05,62.9441667 83.16,63.6225 C83.27,64.3008333 83.5175,64.8233333 83.9025,65.19 C84.2875,65.5566667 84.8283333,65.8225 85.525,65.9875 C86.2216667,66.1525 87.1566667,66.29 88.33,66.4 C88.55,66.4366667 88.7241667,66.5558333 88.8525,66.7575 C88.9808333,66.9591667 89.045,67.17 89.045,67.39 C89.045,67.61 88.9808333,67.8116667 88.8525,67.995 C88.7241667,68.1783333 88.5316667,68.27 88.275,68.27 C86.8083333,68.27 85.4058333,68.1966667 84.0675,68.05 C82.7291667,67.9033333 81.4,67.83 80.08,67.83 C78.6866667,67.83 77.2475,67.9033333 75.7625,68.05 C74.2775,68.1966667 72.93,68.27 71.72,68.27 C71.5,68.27 71.335,68.1783333 71.225,67.995 C71.115,67.8116667 71.06,67.61 71.06,67.39 C71.06,67.17 71.115,66.9591667 71.225,66.7575 C71.335,66.5558333 71.5,66.4366667 71.72,66.4 C72.8566667,66.29 73.7641667,66.1525 74.4425,65.9875 C75.1208333,65.8225 75.6525,65.5566667 76.0375,65.19 C76.4225,64.8233333 76.6791667,64.3008333 76.8075,63.6225 C76.9358333,62.9441667 77,62 77,60.79 L77,36.37 C77,35.0133333 76.6608333,34.1608333 75.9825,33.8125 C75.3041667,33.4641667 74.1583333,33.29 72.545,33.29 C71.1883333,33.29 70.07,33.3908333 69.19,33.5925 C68.31,33.7941667 67.5858333,34.1608333 67.0175,34.6925 C66.4491667,35.2241667 65.9908333,35.9483333 65.6425,36.865 C65.2941667,37.7816667 64.9733333,38.9733333 64.68,40.44 C64.6433333,40.66 64.5241667,40.8066667 64.3225,40.88 C64.1208333,40.9533333 63.9191667,40.9808333 63.7175,40.9625 C63.5158333,40.9441667 63.3325,40.88 63.1675,40.77 C63.0025,40.66 62.92,40.5316667 62.92,40.385 C63.0666667,39.0283333 63.1491667,37.6441667 63.1675,36.2325 C63.1858333,34.8208333 63.1033333,33.4183333 62.92,32.025 C62.92,31.6216667 63.1766667,31.3466667 63.69,31.2 C64.2033333,31.0533333 64.7716667,30.98 65.395,30.98 L94.82,30.98 C95.5166667,30.98 96.0941667,31.0441667 96.5525,31.1725 C97.0108333,31.3008333 97.24,31.5666667 97.24,31.97 C97.1666667,32.41 97.1025,32.9508333 97.0475,33.5925 C96.9925,34.2341667 96.965,34.94 96.965,35.71 C96.965,36.48 96.9925,37.2683333 97.0475,38.075 C97.1025,38.8816667 97.1666667,39.6516667 97.24,40.385 C97.24,40.5316667 97.1483333,40.6691667 96.965,40.7975 C96.7816667,40.9258333 96.58,40.9991667 96.36,41.0175 C96.14,41.0358333 95.9291667,41.0083333 95.7275,40.935 C95.5258333,40.8616667 95.4066667,40.715 95.37,40.495 C95.15,39.0283333 94.8566667,37.8275 94.49,36.8925 C94.1233333,35.9575 93.6375,35.2241667 93.0325,34.6925 C92.4275,34.1608333 91.685,33.7941667 90.805,33.5925 C89.925,33.3908333 88.88,33.29 87.67,33.29 C86.02,33.29 84.8283333,33.4641667 84.095,33.8125 C83.3616667,34.1608333 82.995,35.0133333 82.995,36.37 L82.995,60.79 Z" id="Path"></path>
            <path d="M110.88,54.96 C110.366667,54.96 110,55.0425 109.78,55.2075 C109.56,55.3725 109.358333,55.6566667 109.175,56.06 L106.7,62.55 C106.516667,63.1 106.425,63.5216667 106.425,63.815 C106.425,64.2916667 106.544167,64.6858333 106.7825,64.9975 C107.020833,65.3091667 107.341667,65.5566667 107.745,65.74 C108.148333,65.9233333 108.606667,66.07 109.12,66.18 C109.633333,66.29 110.165,66.3633333 110.715,66.4 C110.971667,66.4 111.155,66.5008333 111.265,66.7025 C111.375,66.9041667 111.43,67.115 111.43,67.335 C111.43,67.555 111.375,67.7658333 111.265,67.9675 C111.155,68.1691667 110.971667,68.27 110.715,68.27 C109.835,68.27 108.826667,68.1966667 107.69,68.05 C106.553333,67.9033333 105.471667,67.83 104.445,67.83 C103.491667,67.83 102.575,67.9033333 101.695,68.05 C100.815,68.1966667 99.8616667,68.27 98.835,68.27 C98.6516667,68.27 98.4958333,68.1783333 98.3675,67.995 C98.2391667,67.8116667 98.1658333,67.61 98.1475,67.39 C98.1291667,67.17 98.1658333,66.9591667 98.2575,66.7575 C98.3491667,66.5558333 98.5233333,66.4366667 98.78,66.4 L99.605,66.29 C100.155,66.18 100.659167,66.0425 101.1175,65.8775 C101.575833,65.7125 101.9975,65.4466667 102.3825,65.08 C102.7675,64.7133333 103.143333,64.2275 103.51,63.6225 C103.876667,63.0175 104.243333,62.2383333 104.61,61.285 L117.04,29.99 C117.15,29.6966667 117.443333,29.55 117.92,29.55 C118.433333,29.55 118.836667,29.6966667 119.13,29.99 C120.046667,32.3366667 121.0275,34.8483333 122.0725,37.525 C123.1175,40.2016667 124.19,42.9241667 125.29,45.6925 C126.39,48.4608333 127.49,51.2108333 128.59,53.9425 C129.69,56.6741667 130.735,59.25 131.725,61.67 C132.165,62.7333333 132.595833,63.5583333 133.0175,64.145 C133.439167,64.7316667 133.860833,65.1716667 134.2825,65.465 C134.704167,65.7583333 135.135,65.96 135.575,66.07 C136.015,66.18 136.491667,66.29 137.005,66.4 C137.225,66.4366667 137.380833,66.5558333 137.4725,66.7575 C137.564167,66.9591667 137.61,67.17 137.61,67.39 C137.61,67.61 137.564167,67.8116667 137.4725,67.995 C137.380833,68.1783333 137.243333,68.27 137.06,68.27 C135.886667,68.27 134.759167,68.1966667 133.6775,68.05 C132.595833,67.9033333 131.376667,67.83 130.02,67.83 C128.48,67.83 127.031667,67.9033333 125.675,68.05 C124.318333,68.1966667 123.016667,68.27 121.77,68.27 C121.513333,68.27 121.320833,68.1691667 121.1925,67.9675 C121.064167,67.7658333 121,67.5366667 121,67.28 C121,67.06 121.055,66.8675 121.165,66.7025 C121.275,66.5375 121.458333,66.4366667 121.715,66.4 C122.961667,66.2533333 123.878333,66.0333333 124.465,65.74 C125.051667,65.4466667 125.345,64.8416667 125.345,63.925 C125.345,63.6683333 125.3175,63.375 125.2625,63.045 C125.2075,62.715 125.088333,62.2658333 124.905,61.6975 C124.721667,61.1291667 124.465,60.3958333 124.135,59.4975 C123.805,58.5991667 123.365,57.4533333 122.815,56.06 C122.631667,55.5833333 122.384167,55.2808333 122.0725,55.1525 C121.760833,55.0241667 121.256667,54.96 120.56,54.96 L110.88,54.96 Z M120.34,52.815 C120.853333,52.815 121.201667,52.7325 121.385,52.5675 C121.568333,52.4025 121.568333,52.1 121.385,51.66 L116.6,38.79 C116.526667,38.6066667 116.38,38.515 116.16,38.515 C115.94,38.515 115.793333,38.6066667 115.72,38.79 L110.715,51.66 C110.531667,52.1366667 110.513333,52.4483333 110.66,52.595 C110.806667,52.7416667 111.081667,52.815 111.485,52.815 L120.34,52.815 Z" id="Shape"></path>
            <path d="M145.695,40.22 C145.695,39.4133333 145.6675,38.625 145.6125,37.855 C145.5575,37.085 145.438333,36.37 145.255,35.71 C145.071667,35.05 144.7875,34.4816667 144.4025,34.005 C144.0175,33.5283333 143.495,33.1983333 142.835,33.015 C142.431667,32.905 142.01,32.8133333 141.57,32.74 C141.13,32.6666667 140.708333,32.6116667 140.305,32.575 C140.085,32.575 139.92,32.4833333 139.81,32.3 C139.7,32.1166667 139.645,31.915 139.645,31.695 C139.645,31.475 139.7,31.2733333 139.81,31.09 C139.92,30.9066667 140.085,30.815 140.305,30.815 C141.551667,30.815 142.67,30.8516667 143.66,30.925 C144.65,30.9983333 145.805,31.035 147.125,31.035 C149.325,30.9983333 151.149167,30.9525 152.5975,30.8975 C154.045833,30.8425 155.43,30.815 156.75,30.815 C158.216667,30.815 159.665,30.9891667 161.095,31.3375 C162.525,31.6858333 163.799167,32.245 164.9175,33.015 C166.035833,33.785 166.934167,34.7933333 167.6125,36.04 C168.290833,37.2866667 168.63,38.79 168.63,40.55 C168.63,41.9433333 168.419167,43.1533333 167.9975,44.18 C167.575833,45.2066667 166.998333,46.0866667 166.265,46.82 C165.531667,47.5533333 164.660833,48.1491667 163.6525,48.6075 C162.644167,49.0658333 161.553333,49.4233333 160.38,49.68 C160.123333,49.7533333 159.995,49.8816667 159.995,50.065 C159.995,50.2116667 160.123333,50.3583333 160.38,50.505 C162.103333,51.3483333 163.4325,52.2833333 164.3675,53.31 C165.3025,54.3366667 166.0175,55.4 166.5125,56.5 C167.0075,57.6 167.365,58.7275 167.585,59.8825 C167.805,61.0375 168.043333,62.165 168.3,63.265 C168.483333,64.1083333 168.785833,64.7225 169.2075,65.1075 C169.629167,65.4925 170.06,65.685 170.5,65.685 C170.94,65.685 171.361667,65.5016667 171.765,65.135 C172.168333,64.7683333 172.48,64.2183333 172.7,63.485 C172.773333,63.1916667 172.92,62.9991667 173.14,62.9075 C173.36,62.8158333 173.570833,62.7975 173.7725,62.8525 C173.974167,62.9075 174.1575,63.0175 174.3225,63.1825 C174.4875,63.3475 174.551667,63.5216667 174.515,63.705 C174.405,64.6216667 174.148333,65.41 173.745,66.07 C173.341667,66.73 172.855833,67.2708333 172.2875,67.6925 C171.719167,68.1141667 171.0775,68.4258333 170.3625,68.6275 C169.6475,68.8291667 168.941667,68.93 168.245,68.93 C167.071667,68.93 166.008333,68.6733333 165.055,68.16 C164.101667,67.6466667 163.46,66.9133333 163.13,65.96 C162.91,65.3366667 162.699167,64.6583333 162.4975,63.925 C162.295833,63.1916667 162.103333,62.4491667 161.92,61.6975 C161.736667,60.9458333 161.553333,60.2125 161.37,59.4975 C161.186667,58.7825 161.021667,58.15 160.875,57.6 C160.215,55.2533333 159.3625,53.5666667 158.3175,52.54 C157.2725,51.5133333 155.815,51 153.945,51 C153.321667,51 152.79,51.1283333 152.35,51.385 C151.91,51.6416667 151.69,52.155 151.69,52.925 L151.69,60.35 C151.69,61.5966667 151.818333,62.5958333 152.075,63.3475 C152.331667,64.0991667 152.716667,64.6858333 153.23,65.1075 C153.743333,65.5291667 154.375833,65.8316667 155.1275,66.015 C155.879167,66.1983333 156.75,66.3266667 157.74,66.4 C157.96,66.4 158.134167,66.5008333 158.2625,66.7025 C158.390833,66.9041667 158.455,67.1333333 158.455,67.39 C158.455,67.61 158.390833,67.8116667 158.2625,67.995 C158.134167,68.1783333 157.941667,68.27 157.685,68.27 C155.851667,68.27 154.238333,68.1966667 152.845,68.05 C151.451667,67.9033333 150.095,67.83 148.775,67.83 C147.381667,67.83 146.006667,67.9033333 144.65,68.05 C143.293333,68.1966667 141.973333,68.27 140.69,68.27 C140.47,68.27 140.305,68.1783333 140.195,67.995 C140.085,67.8116667 140.020833,67.61 140.0025,67.39 C139.984167,67.17 140.03,66.9591667 140.14,66.7575 C140.25,66.5558333 140.433333,66.4366667 140.69,66.4 C141.716667,66.29 142.56,66.1433333 143.22,65.96 C143.88,65.7766667 144.393333,65.4833333 144.76,65.08 C145.126667,64.6766667 145.374167,64.145 145.5025,63.485 C145.630833,62.825 145.695,61.945 145.695,60.845 L145.695,40.22 Z M151.69,46.765 C151.69,47.7183333 151.955833,48.2775 152.4875,48.4425 C153.019167,48.6075 153.816667,48.69 154.88,48.69 C156.31,48.69 157.510833,48.5525 158.4825,48.2775 C159.454167,48.0025 160.233333,47.5441667 160.82,46.9025 C161.406667,46.2608333 161.819167,45.4358333 162.0575,44.4275 C162.295833,43.4191667 162.415,42.1816667 162.415,40.715 C162.415,39.3216667 162.286667,38.1391667 162.03,37.1675 C161.773333,36.1958333 161.360833,35.4075 160.7925,34.8025 C160.224167,34.1975 159.481667,33.7666667 158.565,33.51 C157.648333,33.2533333 156.53,33.125 155.21,33.125 C153.78,33.125 152.835833,33.3083333 152.3775,33.675 C151.919167,34.0416667 151.69,34.7933333 151.69,35.93 L151.69,46.765 Z" id="Shape"></path>
            <path d="M188.155,54.96 C187.641667,54.96 187.275,55.0425 187.055,55.2075 C186.835,55.3725 186.633333,55.6566667 186.45,56.06 L183.975,62.55 C183.791667,63.1 183.7,63.5216667 183.7,63.815 C183.7,64.2916667 183.819167,64.6858333 184.0575,64.9975 C184.295833,65.3091667 184.616667,65.5566667 185.02,65.74 C185.423333,65.9233333 185.881667,66.07 186.395,66.18 C186.908333,66.29 187.44,66.3633333 187.99,66.4 C188.246667,66.4 188.43,66.5008333 188.54,66.7025 C188.65,66.9041667 188.705,67.115 188.705,67.335 C188.705,67.555 188.65,67.7658333 188.54,67.9675 C188.43,68.1691667 188.246667,68.27 187.99,68.27 C187.11,68.27 186.101667,68.1966667 184.965,68.05 C183.828333,67.9033333 182.746667,67.83 181.72,67.83 C180.766667,67.83 179.85,67.9033333 178.97,68.05 C178.09,68.1966667 177.136667,68.27 176.11,68.27 C175.926667,68.27 175.770833,68.1783333 175.6425,67.995 C175.514167,67.8116667 175.440833,67.61 175.4225,67.39 C175.404167,67.17 175.440833,66.9591667 175.5325,66.7575 C175.624167,66.5558333 175.798333,66.4366667 176.055,66.4 L176.88,66.29 C177.43,66.18 177.934167,66.0425 178.3925,65.8775 C178.850833,65.7125 179.2725,65.4466667 179.6575,65.08 C180.0425,64.7133333 180.418333,64.2275 180.785,63.6225 C181.151667,63.0175 181.518333,62.2383333 181.885,61.285 L194.315,29.99 C194.425,29.6966667 194.718333,29.55 195.195,29.55 C195.708333,29.55 196.111667,29.6966667 196.405,29.99 C197.321667,32.3366667 198.3025,34.8483333 199.3475,37.525 C200.3925,40.2016667 201.465,42.9241667 202.565,45.6925 C203.665,48.4608333 204.765,51.2108333 205.865,53.9425 C206.965,56.6741667 208.01,59.25 209,61.67 C209.44,62.7333333 209.870833,63.5583333 210.2925,64.145 C210.714167,64.7316667 211.135833,65.1716667 211.5575,65.465 C211.979167,65.7583333 212.41,65.96 212.85,66.07 C213.29,66.18 213.766667,66.29 214.28,66.4 C214.5,66.4366667 214.655833,66.5558333 214.7475,66.7575 C214.839167,66.9591667 214.885,67.17 214.885,67.39 C214.885,67.61 214.839167,67.8116667 214.7475,67.995 C214.655833,68.1783333 214.518333,68.27 214.335,68.27 C213.161667,68.27 212.034167,68.1966667 210.9525,68.05 C209.870833,67.9033333 208.651667,67.83 207.295,67.83 C205.755,67.83 204.306667,67.9033333 202.95,68.05 C201.593333,68.1966667 200.291667,68.27 199.045,68.27 C198.788333,68.27 198.595833,68.1691667 198.4675,67.9675 C198.339167,67.7658333 198.275,67.5366667 198.275,67.28 C198.275,67.06 198.33,66.8675 198.44,66.7025 C198.55,66.5375 198.733333,66.4366667 198.99,66.4 C200.236667,66.2533333 201.153333,66.0333333 201.74,65.74 C202.326667,65.4466667 202.62,64.8416667 202.62,63.925 C202.62,63.6683333 202.5925,63.375 202.5375,63.045 C202.4825,62.715 202.363333,62.2658333 202.18,61.6975 C201.996667,61.1291667 201.74,60.3958333 201.41,59.4975 C201.08,58.5991667 200.64,57.4533333 200.09,56.06 C199.906667,55.5833333 199.659167,55.2808333 199.3475,55.1525 C199.035833,55.0241667 198.531667,54.96 197.835,54.96 L188.155,54.96 Z M197.615,52.815 C198.128333,52.815 198.476667,52.7325 198.66,52.5675 C198.843333,52.4025 198.843333,52.1 198.66,51.66 L193.875,38.79 C193.801667,38.6066667 193.655,38.515 193.435,38.515 C193.215,38.515 193.068333,38.6066667 192.995,38.79 L187.99,51.66 C187.806667,52.1366667 187.788333,52.4483333 187.935,52.595 C188.081667,52.7416667 188.356667,52.815 188.76,52.815 L197.615,52.815 Z" id="Shape"></path>
        </g>
    </g>
</svg>