<?xml version="1.0" encoding="UTF-8" standalone="no"?>
<svg width="128px" height="128px" viewBox="0 -26 128 128" version="1.1" xmlns="http://www.w3.org/2000/svg" xmlns:xlink="http://www.w3.org/1999/xlink">
    
    <title>MacBook Pro</title>
    <desc>Created with Sketch.</desc>
    <defs></defs>
    <g id="Page-1" stroke="none" stroke-width="1" fill="none" fill-rule="evenodd">
        <g id="Apple-Icons" transform="translate(-536.000000, -250.000000)" fill="#000000">
            <g id="128px" transform="translate(120.000000, 224.000000)">
                <path d="M527,89 C527,90.103 526.103,91 525,91 L435,91 C433.897,91 433,90.103 433,89 L433,33 C433,31.897 433.897,31 435,31 L525,31 C526.103,31 527,31.897 527,33 L527,89 Z M525,30 L435,30 C433.343,30 432,31.343 432,33 L432,89 C432,90.657 433.343,92 435,92 L525,92 C526.657,92 528,90.657 528,89 L528,33 C528,31.343 526.657,30 525,30 L525,30 Z M542,98 C542,99.103 541.103,100 540,100 L420,100 C418.897,100 418,99.103 418,98 L418,96 L428,96 L472,96 C472,97.1 472.9,98 474,98 L486,98 C487.1,98 488,97.1 488,96 L532,96 L542,96 L542,98 Z M430,32 C430,29.794 431.794,28 434,28 L526,28 C528.206,28 530,29.794 530,32 L530,94 L430,94 L430,32 Z M532,94 L532,32 C532,28.7 529.3,26 526,26 L434,26 C430.7,26 428,28.7 428,32 L428,94 L416,94 L416,98 C416,100.2 417.8,102 420,102 L540,102 C542.2,102 544,100.2 544,98 L544,94 L532,94 Z" id="MacBook-Pro"></path>
            </g>
        </g>
    </g>
</svg>